<svg width="80" height="80" viewBox="0 0 80 80" fill="none" xmlns="http://www.w3.org/2000/svg">
<path d="M40 80C62.0914 80 80 62.0914 80 40C80 17.9086 62.0914 0 40 0C17.9086 0 0 17.9086 0 40C0 62.0914 17.9086 80 40 80Z" fill="url(#paint0_linear_121_550)"/>
<path d="M60.4115 22.3643L56.2479 16.8129C55.7057 16.2707 54.8274 16.2707 54.2854 16.8129L50.1218 22.3643C49.7246 22.7615 49.6054 23.3577 49.8209 23.8768C50.0351 24.3959 50.542 24.7334 51.1031 24.7334H52.4909V34.4484C52.4909 35.2155 53.1117 35.8362 53.8787 35.8362H56.6545C57.4217 35.8362 58.0423 35.2154 58.0423 34.4484V24.7334H59.4301C59.9912 24.7334 60.4981 24.3959 60.7123 23.8768C60.9279 23.3577 60.8085 22.7613 60.4115 22.3643ZM49.7151 55.2665V51.1774L54.3179 49.6432C55.0443 49.402 55.4374 48.6159 55.1948 47.888C54.9535 47.1616 54.1742 46.7685 53.4396 47.0112L45.1124 49.787C44.386 50.0282 43.9929 50.8143 44.2356 51.5421C44.4767 52.2654 45.2593 52.6627 45.9907 52.419L46.9395 52.1027V55.2666H49.7151V55.2665ZM51.1031 58.0423H23.3456C21.046 58.0423 19.182 59.9063 19.182 62.2059C19.182 62.9723 19.8034 63.5937 20.5698 63.5937H53.8787C54.6451 63.5937 55.2665 62.9723 55.2665 62.2059C55.2667 59.9063 53.4024 58.0423 51.1031 58.0423ZM21.9578 46.9393C23.4879 46.9393 24.7335 45.6937 24.7335 44.1635C24.7335 42.6334 23.4881 41.3877 21.9578 41.3877C20.4274 41.3877 19.182 42.6334 19.182 44.1635C19.182 45.6937 20.4276 46.9393 21.9578 46.9393ZM31.4967 38.5498L27.5717 34.6248L23.3945 38.802C23.4057 38.8052 23.4181 38.8034 23.429 38.8065C24.1506 39.0009 24.7892 39.3338 25.3442 39.7779C25.3837 39.806 26.3951 40.7174 27.9359 42.1105L31.4967 38.5498ZM38.2263 41.3545L44.1298 35.4502L32.3585 23.679L26.4548 29.5827L38.2263 41.3545ZM43.1268 46.2548C43.6688 46.797 44.5473 46.797 45.0893 46.2548L49.0306 42.3135C49.5728 41.7713 49.5728 40.893 49.0306 40.351L46.0924 37.4127L40.1888 43.317L43.1268 46.2548ZM20.1307 26.9615L23.8959 28.2165L30.9924 21.1199L29.7374 17.3548C29.5856 16.898 29.2088 16.5538 28.7399 16.4426C28.2723 16.3368 27.779 16.4738 27.4403 16.8126L19.5887 24.6641C19.2485 25.0043 19.1088 25.4963 19.2187 25.9638C19.3298 26.433 19.674 26.8098 20.1307 26.9615ZM25.7407 55.2665H38.3282L27.3796 45.3345C26.8563 47.7604 24.7434 49.5843 22.1888 49.6916L25.7407 55.2665Z" fill="url(#paint1_linear_121_550)"/>
<defs>
<linearGradient id="paint0_linear_121_550" x1="40" y1="80" x2="40" y2="0" gradientUnits="userSpaceOnUse">
<stop stop-color="#C3FFE8"/>
<stop offset="0.9973" stop-color="#F0FFF4"/>
</linearGradient>
<linearGradient id="paint1_linear_121_550" x1="40.0001" y1="16.4062" x2="40.0001" y2="63.5937" gradientUnits="userSpaceOnUse">
<stop stop-color="#00B59C"/>
<stop offset="1" stop-color="#9CFFAC"/>
</linearGradient>
</defs>
</svg>
