<svg width="35" height="34" viewBox="0 0 35 34" fill="none" xmlns="http://www.w3.org/2000/svg">
<rect x="0.383301" width="34" height="34" rx="8" fill="white"/>
<path d="M23.2141 23.6666C16.1049 23.6766 10.7091 18.2166 10.7166 11.1691C10.7166 10.7083 11.0899 10.3333 11.5499 10.3333H13.7499C14.1624 10.3333 14.5132 10.6366 14.5741 11.0449C14.7191 12.0241 15.004 12.9775 15.4199 13.8758L15.5057 14.0608C15.5634 14.1852 15.5758 14.326 15.5408 14.4586C15.5058 14.5913 15.4256 14.7076 15.3141 14.7874C14.6324 15.2741 14.3724 16.2533 14.9032 17.0166C15.5691 17.9749 16.4082 18.8149 17.3666 19.4808C18.1307 20.0108 19.1099 19.7508 19.5957 19.0699C19.6755 18.958 19.7919 18.8775 19.9247 18.8424C20.0576 18.8072 20.1985 18.8196 20.3232 18.8774L20.5074 18.9624C21.4057 19.3791 22.3591 19.6641 23.3382 19.8091C23.7466 19.8699 24.0499 20.2208 24.0499 20.6341V22.8333C24.0499 22.9428 24.0283 23.0512 23.9864 23.1523C23.9445 23.2535 23.883 23.3454 23.8055 23.4228C23.7281 23.5002 23.6361 23.5616 23.5349 23.6034C23.4337 23.6452 23.3252 23.6667 23.2157 23.6666H23.2141Z" fill="#014B83"/>
</svg>
