<svg width="80" height="80" viewBox="0 0 80 80" fill="none" xmlns="http://www.w3.org/2000/svg">
<path d="M40 80C62.0914 80 80 62.0914 80 40C80 17.9086 62.0914 0 40 0C17.9086 0 0 17.9086 0 40C0 62.0914 17.9086 80 40 80Z" fill="url(#paint0_linear_121_538)"/>
<path d="M60.8494 51.103L55.0816 46.7848C55.2046 46.3927 55.2896 45.9837 55.2896 45.5514C55.2896 43.7444 54.1241 42.2183 52.5096 41.6434V38.3564C54.1241 37.7816 55.2896 36.2555 55.2896 34.4484C55.2896 34.0163 55.2046 33.6072 55.0816 33.215L60.8494 28.8969C61.4643 28.4373 61.5893 27.5673 61.1277 26.9547C60.6676 26.3394 59.7948 26.2147 59.1826 26.6769L53.4279 30.9852C52.7663 30.5441 51.9734 30.2848 51.1198 30.2848C50.2662 30.2848 49.473 30.5441 48.8115 30.9852L43.9619 27.3545C44.0849 26.9623 44.1699 26.5534 44.1699 26.1212C44.1699 24.3142 43.0044 22.7881 41.3899 22.2133V17.7941C41.3899 17.0269 40.7682 16.4062 39.9999 16.4062C39.2316 16.4062 38.6099 17.027 38.6099 17.7941V22.2133C36.9955 22.7881 35.8299 24.3142 35.8299 26.1212C35.8299 26.5534 35.9149 26.9623 36.0379 27.3545L31.1884 30.9852C30.5268 30.5441 29.7338 30.2848 28.8801 30.2848C28.0265 30.2848 27.2334 30.5441 26.5719 30.9852L20.8173 26.6769C20.2051 26.2173 19.3323 26.342 18.8721 26.9547C18.4105 27.5673 18.5355 28.4375 19.1504 28.8969L24.9182 33.215C24.7952 33.6072 24.7102 34.0161 24.7102 34.4484C24.7102 36.2555 25.8757 37.7816 27.4902 38.3564V41.6434C25.8757 42.2183 24.7102 43.7444 24.7102 45.5514C24.7102 45.9836 24.7952 46.3927 24.9182 46.7848L19.1504 51.103C18.5355 51.5623 18.4105 52.4325 18.8721 53.0452C19.3307 53.6578 20.2016 53.7841 20.8173 53.323L26.5719 49.0147C27.2335 49.4558 28.0265 49.715 28.8801 49.715C29.7337 49.715 30.5268 49.4558 31.1884 49.0147L36.0379 52.6453C35.9149 53.0375 35.8299 53.4466 35.8299 53.8787C35.8299 55.6858 36.9954 57.2119 38.6099 57.7867V62.2059C38.6099 62.9731 39.2316 63.5938 39.9999 63.5938C40.7682 63.5938 41.3899 62.973 41.3899 62.2059V57.7867C43.0043 57.2119 44.1699 55.6858 44.1699 53.8787C44.1699 53.4466 44.0849 53.0377 43.9619 52.6453L48.8115 49.0147C49.473 49.4558 50.266 49.715 51.1198 49.715C51.9734 49.715 52.7665 49.4558 53.4279 49.0147L59.1826 53.323C59.7979 53.7837 60.6688 53.6583 61.1277 53.0452C61.5893 52.4325 61.4643 51.5623 60.8494 51.103ZM49.7298 41.6436C48.1152 42.2184 46.9498 43.7445 46.9498 45.5516C46.9498 45.9837 47.0348 46.3928 47.1577 46.785L42.3082 50.4156C41.6466 49.9745 40.8535 49.7153 39.9999 49.7153C39.1463 49.7153 38.3532 49.9745 37.6916 50.4156L32.8421 46.785C32.9651 46.3928 33.0501 45.9839 33.0501 45.5516C33.0501 43.7445 31.8846 42.2184 30.2701 41.6436V38.3566C31.8846 37.7817 33.0501 36.2556 33.0501 34.4486C33.0501 34.0164 32.9651 33.6073 32.8421 33.2152L37.6916 29.5845C38.3532 30.0256 39.1463 30.2848 39.9999 30.2848C40.8535 30.2848 41.6466 30.0256 42.3082 29.5845L47.1577 33.2152C47.0348 33.6073 46.9498 34.0162 46.9498 34.4486C46.9498 36.2556 48.1152 37.7817 49.7298 38.3566V41.6436Z" fill="url(#paint1_linear_121_538)"/>
<defs>
<linearGradient id="paint0_linear_121_538" x1="40" y1="80" x2="40" y2="0" gradientUnits="userSpaceOnUse">
<stop stop-color="#FFC2CC"/>
<stop offset="1" stop-color="#FFF2F4"/>
</linearGradient>
<linearGradient id="paint1_linear_121_538" x1="40.0001" y1="63.5938" x2="40.0001" y2="16.4062" gradientUnits="userSpaceOnUse">
<stop stop-color="#FFA68D"/>
<stop offset="1" stop-color="#FD3A84"/>
</linearGradient>
</defs>
</svg>
