<svg width="80" height="80" viewBox="0 0 80 80" fill="none" xmlns="http://www.w3.org/2000/svg">
<path d="M40 80C62.0914 80 80 62.0914 80 40C80 17.9086 62.0914 0 40 0C17.9086 0 0 17.9086 0 40C0 62.0914 17.9086 80 40 80Z" fill="url(#paint0_linear_2_10107)"/>
<g clip-path="url(#clip0_2_10107)">
<path d="M28.6422 53.9636C28.7906 54.0843 28.9692 54.1432 29.1467 54.1432C29.379 54.1432 29.6094 54.0425 29.7674 53.8483C30.0462 53.5058 29.9946 53.002 29.6521 52.7232C27.2894 50.7997 25.5458 48.3083 24.552 45.5239C27.5602 46.1327 30.6528 46.5598 33.7992 46.8018C33.9457 48.246 34.1395 49.6343 34.3782 50.9406C34.4577 51.375 34.8742 51.6626 35.3087 51.5836C35.7432 51.5042 36.031 51.0876 35.9517 50.6531C35.7353 49.4691 35.557 48.2143 35.4184 46.9098C36.7201 46.9832 38.0305 47.0253 39.3469 47.0357C39.349 47.0357 39.3513 47.0357 39.3534 47.0357C39.7922 47.0357 40.1495 46.6817 40.153 46.2422C40.1564 45.8005 39.8013 45.4396 39.3596 45.4362C37.9883 45.4253 36.624 45.3795 35.2696 45.2989C35.1343 43.586 35.0647 41.8053 35.0647 39.9998C35.0647 38.5059 35.1116 37.0396 35.202 35.6231C36.7778 35.7287 38.3772 35.7815 39.9974 35.7815C41.6097 35.7815 43.2101 35.7279 44.7913 35.6212C44.8658 36.7781 44.9112 37.9668 44.9254 39.1744C44.9305 39.6129 45.2875 39.9648 45.7249 39.9648C45.728 39.9648 45.7312 39.9648 45.7344 39.9648C46.176 39.9596 46.5299 39.5974 46.5247 39.1558C46.5102 37.9132 46.4629 36.6889 46.385 35.4952C48.1638 35.3336 49.9148 35.104 51.6275 34.8071C52.0626 34.7316 52.3544 34.3177 52.2789 33.8825C52.2035 33.4473 51.7894 33.1553 51.3543 33.231C49.6907 33.5194 47.9897 33.7428 46.261 33.9003C45.9201 30.128 45.2671 26.7434 44.3757 24.1899C47.7202 25.1094 50.7055 27.0789 52.9113 29.8936C53.1839 30.2413 53.6865 30.3022 54.0342 30.0298C54.3818 29.7574 54.4429 29.2547 54.1703 28.907C50.7314 24.5192 45.5656 22.0027 39.9971 22.0027C38.9099 22.0027 37.8442 22.0997 36.8096 22.2854C36.7857 22.2886 36.7618 22.2929 36.7384 22.2983C30.8243 23.3846 25.9117 27.3713 23.5366 32.7243C23.5119 32.7685 23.491 32.8157 23.4747 32.8654C22.5262 35.0539 22 37.4668 22 39.9998C22 45.4376 24.421 50.5272 28.6422 53.9636ZM37.478 23.7954C38.2994 23.6682 39.1406 23.6022 39.9971 23.6022C40.8487 23.6022 41.6901 23.6668 42.5153 23.7932C43.5446 26.2819 44.2963 29.9012 44.668 34.0264C43.1277 34.13 41.5685 34.1819 39.9972 34.1819C38.418 34.1819 36.8588 34.1305 35.3238 34.0281C35.6925 29.9052 36.4407 26.3006 37.478 23.7954ZM35.6155 24.1966C34.7197 26.7579 34.0698 30.1316 33.7313 33.9028C30.8496 33.6411 28.0583 33.1962 25.3809 32.5708C27.4486 28.5195 31.1528 25.4355 35.6155 24.1966ZM23.5995 39.9998C23.5995 37.905 23.9946 35.9001 24.7138 34.0567C27.5624 34.7383 30.5364 35.2198 33.6084 35.4977C33.514 36.9574 33.465 38.4656 33.465 39.9998C33.465 41.7628 33.5299 43.5044 33.6566 45.1861C30.3763 44.9225 27.1585 44.4534 24.0379 43.7826C23.7489 42.5571 23.5995 41.2893 23.5995 39.9998ZM51.5974 23.8283C52.915 23.531 54.6878 23.3791 55.6529 24.3442C56.7809 25.4722 56.6115 28.0095 55.1882 31.3055C53.7298 34.6827 51.0855 38.5996 47.7051 42.4007C47.0981 41.9551 46.3495 41.6917 45.5406 41.6917C43.5191 41.6917 41.8746 43.3363 41.8746 45.3577C41.8746 47.3791 43.5191 49.0237 45.5406 49.0237C47.562 49.0237 49.2065 47.3791 49.2065 45.3577C49.2065 44.7274 49.0466 44.1336 48.7652 43.615C52.3209 39.6421 55.1131 35.5141 56.6567 31.9396C58.4036 27.8943 58.4476 24.8766 56.784 23.2131C55.9672 22.3962 54.3431 21.5691 51.2456 22.268C50.8147 22.3652 50.5442 22.7934 50.6414 23.2242C50.7386 23.655 51.1666 23.9257 51.5974 23.8283ZM45.5405 47.4242C44.401 47.4242 43.474 46.4972 43.474 45.3577C43.474 44.2182 44.401 43.2912 45.5405 43.2912C46.6799 43.2912 47.6069 44.2182 47.6069 45.3577C47.6069 46.4972 46.6799 47.4242 45.5405 47.4242ZM41.7978 50.3302C38.0309 53.4487 34.1836 55.8362 30.9646 57.0532C29.2987 57.683 27.8243 57.9974 26.5719 57.9974C25.1518 57.9974 24.0171 57.5933 23.2104 56.7866C22.3973 55.9735 21.572 54.3583 22.258 51.281C22.3541 50.85 22.7816 50.5783 23.2126 50.6745C23.6438 50.7705 23.9153 51.1979 23.8193 51.629C23.5279 52.9362 23.382 54.696 24.3415 55.6556C25.3669 56.681 27.5182 56.646 30.399 55.5569C33.4574 54.4009 37.1432 52.107 40.7778 49.0981C41.1179 48.8165 41.6221 48.8639 41.9038 49.2041C42.1855 49.5443 42.1381 50.0485 41.7978 50.3302ZM57.6344 36.4024C57.8733 37.5802 57.9945 38.7906 57.9945 39.9998C57.9945 41.5982 57.785 43.149 57.392 44.6255C57.3863 44.6524 57.3791 44.6789 57.3708 44.7049C55.5748 51.3286 50.0822 56.4483 43.2548 57.7017C43.232 57.7069 43.2091 57.711 43.186 57.7142C42.1508 57.9 41.0851 57.9971 39.9973 57.9971C38.687 57.9971 37.3788 57.8554 36.1091 57.5758C35.6777 57.4808 35.405 57.0541 35.5 56.6228C35.5949 56.1913 36.0219 55.9186 36.4531 56.0137C37.6101 56.2685 38.8025 56.3976 39.9974 56.3976C40.8539 56.3976 41.6948 56.3316 42.5162 56.2045C43.0568 54.8935 43.5387 53.2124 43.918 51.3088C44.0044 50.8756 44.4255 50.5945 44.8586 50.6808C45.2918 50.767 45.573 51.1882 45.4866 51.6214C45.1732 53.1942 44.8024 54.5941 44.3793 55.8033C49.5183 54.3766 53.6502 50.5047 55.4374 45.5249C54.1989 45.7753 52.9404 45.9962 51.6808 46.184C51.2436 46.249 50.8371 45.9478 50.7718 45.5109C50.7067 45.0741 51.008 44.6671 51.4449 44.6019C52.9616 44.3758 54.4762 44.1008 55.9546 43.7833C56.2427 42.5682 56.3951 41.3018 56.3951 40C56.3951 38.8972 56.2847 37.7939 56.067 36.7205C55.9792 36.2877 56.2589 35.8656 56.6918 35.7778C57.1243 35.6899 57.5466 35.9695 57.6344 36.4024Z" fill="url(#paint1_linear_2_10107)"/>
</g>
<defs>
<linearGradient id="paint0_linear_2_10107" x1="40" y1="80" x2="40" y2="0" gradientUnits="userSpaceOnUse">
<stop stop-color="#ADDCFF"/>
<stop offset="0.5028" stop-color="#EAF6FF"/>
<stop offset="1" stop-color="#EAF6FF"/>
</linearGradient>
<linearGradient id="paint1_linear_2_10107" x1="40" y1="57.9974" x2="40" y2="22.0027" gradientUnits="userSpaceOnUse">
<stop stop-color="#03BEFD"/>
<stop offset="1" stop-color="#5558FD"/>
</linearGradient>
<clipPath id="clip0_2_10107">
<rect width="36" height="36" fill="white" transform="translate(22 22)"/>
</clipPath>
</defs>
</svg>
