<svg width="80" height="80" viewBox="0 0 80 80" fill="none" xmlns="http://www.w3.org/2000/svg">
<path d="M40 80C62.0914 80 80 62.0914 80 40C80 17.9086 62.0914 0 40 0C17.9086 0 0 17.9086 0 40C0 62.0914 17.9086 80 40 80Z" fill="url(#paint0_linear_2_10092)"/>
<g clip-path="url(#clip0_2_10092)">
<path d="M56.9912 30.853L56.9899 30.8218C56.9725 30.4376 56.9609 30.0311 56.9539 29.5788C56.9213 27.3733 55.168 25.549 52.9622 25.4257C48.3633 25.1691 44.8055 23.6694 41.7657 20.7065L41.7397 20.6818C40.7482 19.7727 39.2526 19.7727 38.2607 20.6818L38.2348 20.7065C35.195 23.6694 31.6372 25.1691 27.0382 25.426C24.8327 25.549 23.0792 27.3733 23.0466 29.5792C23.0398 30.0284 23.0279 30.4349 23.0105 30.8218L23.0087 30.8941C22.9193 35.5838 22.8082 41.4202 24.7607 46.7178C25.8343 49.631 27.4603 52.1633 29.5932 54.2449C32.0224 56.6155 35.2041 58.4975 39.0499 59.8385C39.175 59.8821 39.3051 59.9175 39.4375 59.9441C39.6243 59.9813 39.8123 59.9999 40.0002 59.9999C40.1882 59.9999 40.3765 59.9813 40.563 59.9441C40.6954 59.9175 40.8264 59.8818 40.9521 59.8379C44.7933 58.4945 47.9717 56.6115 50.3988 54.2413C52.5307 52.159 54.1567 49.6261 55.2312 46.7123C57.1911 41.3989 57.0803 35.5514 56.9912 30.853ZM53.0291 45.9002C50.9698 51.4837 46.766 55.3182 40.1775 57.6223C40.1541 57.6302 40.129 57.6372 40.1031 57.6424C40.035 57.6559 39.9658 57.6559 39.8968 57.6421C39.8712 57.6369 39.8461 57.6302 39.8229 57.6223C33.2275 55.3225 29.021 51.4901 26.9632 45.9063C25.1636 41.0232 25.2655 35.6656 25.3555 30.939L25.3561 30.9128C25.3744 30.5066 25.3866 30.0812 25.3934 29.6136C25.408 28.6343 26.188 27.8241 27.1692 27.7695C29.7717 27.6242 32.0581 27.1213 34.1589 26.232C36.257 25.3439 38.1204 24.0921 39.855 22.4051C39.9432 22.3306 40.0576 22.3303 40.1455 22.4051C41.8804 24.0921 43.7438 25.3439 45.8416 26.232C47.9424 27.1213 50.2288 27.6242 52.8316 27.7695C53.8128 27.8241 54.5928 28.6343 54.6071 29.6139C54.6142 30.0839 54.6264 30.5093 54.6447 30.9128C54.7344 35.6448 54.8339 41.0067 53.0291 45.9002Z" fill="url(#paint1_linear_2_10092)"/>
<path d="M39.9686 29.9999C34.4717 29.9999 30 34.472 30 39.9685C30 45.4653 34.4717 49.9374 39.9686 49.9374C45.4651 49.9374 49.9371 45.4653 49.9371 39.9685C49.9371 34.472 45.4651 29.9999 39.9686 29.9999ZM39.9686 47.59C35.766 47.59 32.3471 44.1711 32.3471 39.9685C32.3471 35.7659 35.766 32.347 39.9686 32.347C44.1708 32.347 47.5897 35.7659 47.5897 39.9685C47.5897 44.1711 44.1708 47.59 39.9686 47.59Z" fill="url(#paint2_linear_2_10092)"/>
<path d="M42.8649 36.9058L38.2347 41.5359L36.978 40.2792C36.5196 39.8208 35.7765 39.8208 35.3182 40.2792C34.8601 40.7376 34.8601 41.4807 35.3182 41.9387L37.405 44.0255C37.6341 44.2547 37.9344 44.3692 38.2347 44.3692C38.535 44.3692 38.8353 44.2547 39.0645 44.0255L44.5247 38.5653C44.9828 38.1069 44.9828 37.3638 44.5247 36.9058C44.0663 36.4471 43.3232 36.4471 42.8649 36.9058Z" fill="url(#paint3_linear_2_10092)"/>
</g>
<defs>
<linearGradient id="paint0_linear_2_10092" x1="40" y1="80" x2="40" y2="0" gradientUnits="userSpaceOnUse">
<stop stop-color="#ADDCFF"/>
<stop offset="0.5028" stop-color="#EAF6FF"/>
<stop offset="1" stop-color="#EAF6FF"/>
</linearGradient>
<linearGradient id="paint1_linear_2_10092" x1="39.9997" y1="59.9999" x2="39.9997" y2="19.9999" gradientUnits="userSpaceOnUse">
<stop stop-color="#03BEFD"/>
<stop offset="1" stop-color="#5558FD"/>
</linearGradient>
<linearGradient id="paint2_linear_2_10092" x1="39.9685" y1="49.9374" x2="39.9685" y2="29.9999" gradientUnits="userSpaceOnUse">
<stop stop-color="#03BEFD"/>
<stop offset="1" stop-color="#5558FD"/>
</linearGradient>
<linearGradient id="paint3_linear_2_10092" x1="39.9214" y1="44.3692" x2="39.9214" y2="36.5618" gradientUnits="userSpaceOnUse">
<stop stop-color="#03BEFD"/>
<stop offset="1" stop-color="#5558FD"/>
</linearGradient>
<clipPath id="clip0_2_10092">
<rect width="40" height="40" fill="white" transform="translate(20 20)"/>
</clipPath>
</defs>
</svg>
