<svg width="80" height="80" viewBox="0 0 80 80" fill="none" xmlns="http://www.w3.org/2000/svg">
<path d="M40 80C62.0914 80 80 62.0914 80 40C80 17.9086 62.0914 0 40 0C17.9086 0 0 17.9086 0 40C0 62.0914 17.9086 80 40 80Z" fill="url(#paint0_linear_121_648)"/>
<path d="M45.5512 21.9577H51.1027C51.8684 21.9577 52.4905 22.5797 52.4905 23.3455C52.4905 24.1127 53.1112 24.7334 53.8783 24.7334C54.6455 24.7334 55.2661 24.1127 55.2661 23.3455C55.2661 21.0495 53.3984 19.1819 51.1025 19.1819H45.5511C44.7853 19.1819 44.1633 18.5598 44.1633 17.7941C44.1633 17.0269 43.5425 16.4062 42.7755 16.4062C42.0084 16.4062 41.3877 17.027 41.3877 17.7941C41.3877 20.09 43.2553 21.9577 45.5512 21.9577ZM49.7148 59.4302C49.7148 61.7339 51.5745 63.5938 53.8784 63.5938C56.1823 63.5938 58.042 61.7339 58.042 59.4302V52.4908H49.7148V59.4302ZM49.7148 49.7152H58.042V46.945H49.7148V49.7152ZM62.2058 41.3878H58.0422V38.612H62.2058C62.973 38.612 63.5936 37.9913 63.5936 37.2242C63.5936 36.457 62.9728 35.8364 62.2058 35.8364H58.0422V30.2848H59.43C60.1972 30.2848 60.8178 29.6641 60.8178 28.897C60.8178 28.13 60.197 27.5092 59.43 27.5092H48.327C47.5598 27.5092 46.9392 28.13 46.9392 28.897C46.9392 29.6641 47.56 30.2848 48.327 30.2848H49.7148V35.8364H45.5512C44.4773 35.8364 43.5098 36.2516 42.7723 36.9166C42.0344 36.2525 41.0686 35.8364 39.9998 35.8364C39.1334 35.8364 38.3289 36.1036 37.6617 36.5581C36.4617 34.4791 34.2406 33.0606 31.6727 33.0606H30.0477C30.2008 32.6269 30.2848 32.1594 30.2848 31.6728C30.2848 29.3769 28.4172 27.5092 26.1213 27.5092H20.5698C18.2739 27.5092 16.4062 29.3769 16.4062 31.6728C16.4062 33.9688 18.2739 35.8364 20.5698 35.8364H31.6728C33.9688 35.8364 35.8364 37.7041 35.8364 40C35.8364 42.2959 33.9688 44.1636 31.6728 44.1636H20.5698C18.2739 44.1636 16.4062 46.0312 16.4062 48.3272C16.4062 50.6231 18.2739 52.4908 20.5698 52.4908H26.1213C28.4172 52.4908 30.2848 50.6231 30.2848 48.3272C30.2848 47.8406 30.2008 47.373 30.0477 46.9392H31.6727C34.2406 46.9392 36.4617 45.5209 37.6617 43.4417C38.3289 43.8963 39.1334 44.1634 39.9998 44.1634C41.0686 44.1634 42.0344 43.7472 42.7723 43.0831C43.51 43.748 44.4773 44.1634 45.5512 44.1634H62.2056C62.983 44.1634 63.5934 43.5527 63.5934 42.7756C63.5936 41.9984 62.983 41.3878 62.2058 41.3878ZM26.1211 33.0606H20.5697C19.8039 33.0606 19.1819 32.4386 19.1819 31.6728C19.1819 30.907 19.8039 30.285 20.5697 30.285H26.1211C26.8869 30.285 27.5089 30.907 27.5089 31.6728C27.5089 32.4386 26.8869 33.0606 26.1211 33.0606ZM26.1211 49.7152H20.5697C19.8039 49.7152 19.1819 49.0931 19.1819 48.3273C19.1819 47.5616 19.8039 46.9394 20.5697 46.9394H26.1211C26.8869 46.9394 27.5089 47.5614 27.5089 48.3273C27.5091 49.093 26.8869 49.7152 26.1211 49.7152ZM49.7148 41.3878H45.5512C44.7739 41.3878 44.1634 40.777 44.1634 40C44.1634 39.2227 44.7741 38.6122 45.5512 38.6122H49.7148V41.3878Z" fill="url(#paint1_linear_121_648)"/>
<defs>
<linearGradient id="paint0_linear_121_648" x1="40" y1="80" x2="40" y2="0" gradientUnits="userSpaceOnUse">
<stop stop-color="#ADDCFF"/>
<stop offset="0.5028" stop-color="#EAF6FF"/>
<stop offset="1" stop-color="#EAF6FF"/>
</linearGradient>
<linearGradient id="paint1_linear_121_648" x1="39.9998" y1="63.5938" x2="39.9998" y2="16.4062" gradientUnits="userSpaceOnUse">
<stop stop-color="#03BEFD"/>
<stop offset="1" stop-color="#5558FD"/>
</linearGradient>
</defs>
</svg>
