<svg width="35" height="34" viewBox="0 0 35 34" fill="none" xmlns="http://www.w3.org/2000/svg">
<rect x="0.383301" width="34" height="34" rx="8" fill="white"/>
<path d="M18.8283 25.18C21.0071 23.2625 24.8833 19.345 24.8833 15.75C24.8833 13.7609 24.0931 11.8532 22.6866 10.4467C21.2801 9.04018 19.3724 8.25 17.3833 8.25C15.3942 8.25 13.4865 9.04018 12.08 10.4467C10.6735 11.8532 9.8833 13.7609 9.8833 15.75C9.8833 19.345 13.7583 23.2625 15.9383 25.18C16.3359 25.5349 16.8503 25.7311 17.3833 25.7311C17.9163 25.7311 18.4307 25.5349 18.8283 25.18ZM14.8833 15.75C14.8833 15.087 15.1467 14.4511 15.6155 13.9822C16.0844 13.5134 16.7203 13.25 17.3833 13.25C18.0463 13.25 18.6822 13.5134 19.1511 13.9822C19.6199 14.4511 19.8833 15.087 19.8833 15.75C19.8833 16.413 19.6199 17.0489 19.1511 17.5178C18.6822 17.9866 18.0463 18.25 17.3833 18.25C16.7203 18.25 16.0844 17.9866 15.6155 17.5178C15.1467 17.0489 14.8833 16.413 14.8833 15.75Z" fill="#014B83"/>
</svg>
