<svg width="18" height="22" viewBox="0 0 18 22" fill="none" xmlns="http://www.w3.org/2000/svg">
<path d="M10.734 20.816C13.3485 18.515 18 13.814 18 9.5C18 7.11305 17.0518 4.82387 15.364 3.13604C13.6761 1.44821 11.3869 0.5 9 0.5C6.61305 0.5 4.32387 1.44821 2.63604 3.13604C0.948211 4.82387 3.55683e-08 7.11305 0 9.5C0 13.814 4.65 18.515 7.266 20.816C7.74317 21.2419 8.3604 21.4773 9 21.4773C9.6396 21.4773 10.2568 21.2419 10.734 20.816ZM6 9.5C6 8.70435 6.31607 7.94129 6.87868 7.37868C7.44129 6.81607 8.20435 6.5 9 6.5C9.79565 6.5 10.5587 6.81607 11.1213 7.37868C11.6839 7.94129 12 8.70435 12 9.5C12 10.2956 11.6839 11.0587 11.1213 11.6213C10.5587 12.1839 9.79565 12.5 9 12.5C8.20435 12.5 7.44129 12.1839 6.87868 11.6213C6.31607 11.0587 6 10.2956 6 9.5Z" fill="#014B83"/>
</svg>
