<svg width="35" height="34" viewBox="0 0 35 34" fill="none" xmlns="http://www.w3.org/2000/svg">
<rect x="0.383301" width="34" height="34" rx="8" fill="white"/>
<path d="M12.3833 10.75C11.7203 10.75 11.0844 11.0134 10.6155 11.4822C10.1467 11.9511 9.8833 12.587 9.8833 13.25V13.5013L17.3833 17.54L24.8833 13.5025V13.25C24.8833 12.587 24.6199 11.9511 24.1511 11.4822C23.6822 11.0134 23.0463 10.75 22.3833 10.75H12.3833ZM24.8833 14.9212L17.6796 18.8C17.5885 18.849 17.4867 18.8747 17.3833 18.8747C17.2799 18.8747 17.1781 18.849 17.0871 18.8L9.8833 14.9212V20.75C9.8833 21.413 10.1467 22.0489 10.6155 22.5178C11.0844 22.9866 11.7203 23.25 12.3833 23.25H22.3833C23.0463 23.25 23.6822 22.9866 24.1511 22.5178C24.6199 22.0489 24.8833 21.413 24.8833 20.75V14.9212Z" fill="#014B83"/>
</svg>
