<svg width="24" height="24" viewBox="0 0 24 24" fill="none" xmlns="http://www.w3.org/2000/svg">
<path d="M20.6794 16.7039C19.2296 15.4639 17.7582 14.7127 16.3262 15.9509L15.4711 16.6992C14.8454 17.2424 13.6822 19.7806 9.18469 14.6069C4.68815 9.43974 7.36397 8.63521 7.99055 8.09667L8.85033 7.3474C10.2749 6.10643 9.73728 4.5442 8.70984 2.93609L8.08982 1.96204C7.05771 0.357668 5.9338 -0.695991 4.50551 0.543112L3.73377 1.21745C3.10251 1.67732 1.33798 3.17211 0.909961 6.01183C0.394839 9.41913 2.01981 13.3209 5.74274 17.6021C9.46099 21.8851 13.1015 24.0364 16.55 23.999C19.416 23.968 21.1468 22.4302 21.6881 21.871L22.4627 21.1958C23.8872 19.9576 23.0021 18.6969 21.5514 17.4541L20.6794 16.7039Z" fill="#014B83"/>
</svg>
