<svg width="38" height="29" viewBox="0 0 38 29" fill="none" xmlns="http://www.w3.org/2000/svg">
<path d="M0.6 20.48C0.6 14.3467 0.946667 9.94667 1.64 7.28C2.38667 4.56 3.85333 2.69333 6.04 1.68C8.28 0.666665 11.9333 0.159999 17 0.159999V9.52C14.28 9.52 12.4933 9.57333 11.64 9.68C10.7867 9.78666 10.2267 10.1067 9.96 10.64C9.69333 11.1733 9.56 12.1867 9.56 13.68H17V28.64H0.6V20.48ZM21.4 20.48C21.4 14.3467 21.7467 9.94667 22.44 7.28C23.1867 4.56 24.6533 2.69333 26.84 1.68C29.08 0.666665 32.7333 0.159999 37.8 0.159999V9.52C35.08 9.52 33.2933 9.57333 32.44 9.68C31.5867 9.78666 31.0267 10.1067 30.76 10.64C30.4933 11.1733 30.36 12.1867 30.36 13.68H37.8V28.64H21.4V20.48Z" fill="#014B83"/>
</svg>
