<svg width="80" height="80" viewBox="0 0 80 80" fill="none" xmlns="http://www.w3.org/2000/svg">
<path d="M40 80C62.0914 80 80 62.0914 80 40C80 17.9086 62.0914 0 40 0C17.9086 0 0 17.9086 0 40C0 62.0914 17.9086 80 40 80Z" fill="url(#paint0_linear_2_10113)"/>
<path d="M48.5938 50.9375C48.1625 50.9375 47.8125 51.2875 47.8125 51.7188C47.8125 52.15 48.1625 52.5 48.5938 52.5C49.025 52.5 49.375 52.15 49.375 51.7188C49.375 51.2875 49.025 50.9375 48.5938 50.9375Z" fill="url(#paint1_linear_2_10113)"/>
<path d="M50.5173 48.4112L46.8041 47.1737L45.471 44.5075C46.672 43.2852 47.5058 41.6678 47.787 39.9809L47.9532 38.9844H49.375C50.6673 38.9844 51.7188 37.933 51.7188 36.6406V31.7188C51.7188 25.257 46.4617 20 40 20C33.5217 20 28.2812 25.242 28.2812 31.7188V36.6406C28.2812 37.6591 28.9345 38.5275 29.8438 38.85V39.7656C29.8438 41.058 30.8952 42.1094 32.1875 42.1094H32.8736C33.2123 42.8451 33.6506 43.5265 34.1841 44.1386C34.2947 44.2658 34.4101 44.3891 34.5283 44.509L33.1959 47.1737L29.4826 48.4113C25.165 49.8509 22.0312 54.3962 22.0312 59.2188C22.0312 59.6502 22.381 60 22.8125 60H57.1875C57.6189 60 57.9688 59.6502 57.9688 59.2188C57.9688 54.3962 54.8351 49.8509 50.5173 48.4112ZM50.1562 36.6406C50.1562 37.0714 49.8058 37.4219 49.375 37.4219H48.1827C48.3813 35.8836 48.5136 34.2466 48.5668 32.6344C48.5684 32.5889 48.5696 32.5447 48.571 32.5H50.1562V36.6406ZM30.625 37.4219C30.1942 37.4219 29.8438 37.0714 29.8438 36.6406V32.5H31.4295C31.4321 32.5815 31.4348 32.6634 31.4379 32.7458C31.438 32.7486 31.4381 32.7513 31.4382 32.7541C31.4382 32.7544 31.4382 32.7546 31.4382 32.7548C31.4929 34.323 31.6235 35.9174 31.8176 37.4218H30.625V37.4219ZM32.1875 40.5469C31.7567 40.5469 31.4062 40.1964 31.4062 39.7656V38.9844H32.0467L32.213 39.9812C32.2447 40.1706 32.2837 40.3594 32.3287 40.5469H32.1875ZM31.4076 30.9375H29.8734C30.2691 25.7015 34.6388 21.5625 40 21.5625C45.3373 21.5625 49.7262 25.7009 50.1265 30.9375H48.5925C48.5363 26.6229 45.0227 23.125 40.6993 23.125H39.3009C34.9775 23.125 31.4637 26.6229 31.4076 30.9375ZM39.3008 24.6875H40.6992C44.1999 24.6875 47.0333 27.5509 47.0312 31.0477C47.0312 31.2935 47.0293 31.5076 47.0252 31.7023C47.0252 31.7048 47.0251 31.7074 47.0251 31.71L46.0479 31.5704C43.3932 31.1913 40.8866 29.938 38.9899 28.0413C38.8434 27.8948 38.6447 27.8125 38.4375 27.8125C36.3394 27.8125 34.3309 28.7684 33.0033 30.3834C33.3305 27.2023 36.0198 24.6875 39.3008 24.6875ZM33.9484 40.5469C33.5573 39.2459 33.1098 35.4177 33.0109 32.9646L34.0624 31.5626C35.0281 30.2754 36.5305 29.4756 38.1287 29.3838C40.2316 31.3851 42.9521 32.7066 45.827 33.1171L46.9771 33.2815C46.9002 34.9131 46.7431 36.5505 46.518 38.0563C46.518 38.0568 46.5179 38.0573 46.5178 38.0579C46.4463 38.542 46.3898 38.8536 46.2458 39.7238C45.832 42.2055 43.9803 44.4496 41.5359 45.0608C40.5298 45.312 39.47 45.3119 38.4645 45.0608C36.9382 44.6792 35.5387 43.6231 34.6355 42.1094H36.2281C36.5506 43.0187 37.419 43.6719 38.4375 43.6719H40C41.2949 43.6719 42.3438 42.6231 42.3438 41.3281C42.3438 40.0358 41.2923 38.9844 40 38.9844H38.4375C37.3963 38.9844 36.5408 39.6569 36.2268 40.5469H33.9484ZM38.3718 46.6419C38.9077 46.7548 39.454 46.8125 40 46.8125C40.4274 46.8125 40.8549 46.7767 41.2776 46.7073L39.8971 48.1673L38.3718 46.6419ZM38.823 49.303L36.3451 51.9235C35.6629 50.6177 35.0767 49.2588 34.5959 47.8675L35.5265 46.0064L38.823 49.303ZM44.3411 45.7417L45.4039 47.8674C44.9223 49.261 44.336 50.6205 43.6545 51.9247L41.0023 49.2725L44.3411 45.7417ZM37.6562 41.3281C37.6562 40.8968 38.0061 40.5469 38.4375 40.5469H40C40.4308 40.5469 40.7812 40.8973 40.7812 41.3281C40.7812 41.7595 40.4313 42.1094 40 42.1094H38.4375C38.0067 42.1094 37.6562 41.7589 37.6562 41.3281ZM23.625 58.4375C23.9346 54.5673 26.5103 51.0495 29.9767 49.8935L33.2653 48.7976C33.8678 50.4636 34.6142 52.0829 35.489 53.621C35.4905 53.6237 35.4919 53.6263 35.4934 53.6289C35.4934 53.629 35.4934 53.629 35.4934 53.6291C36.1326 54.7532 36.852 55.8517 37.6319 56.8946L38.593 58.4375H23.625ZM40 57.7411L38.9405 56.0401C38.9286 56.021 38.9159 56.0025 38.9025 55.9845C38.2698 55.1406 37.6797 54.258 37.1422 53.3547L39.9284 50.4083L42.8641 53.3441C42.323 54.254 41.7309 55.1402 41.0977 55.9844C41.0594 56.0354 41.1137 55.955 40 57.7411ZM41.407 58.4375L42.368 56.8947C43.1514 55.8478 43.8759 54.7405 44.5215 53.6031C44.5254 53.5962 44.5291 53.5892 44.533 53.5823C44.5334 53.5815 44.5339 53.5807 44.5344 53.5798C45.398 52.0564 46.1366 50.4512 46.7347 48.7976L50.0232 49.8935C53.4897 51.0495 56.0654 54.5673 56.375 58.4375H41.407Z" fill="url(#paint2_linear_2_10113)"/>
<path d="M54.0271 55.2758C53.505 54.2308 52.7403 53.3023 51.8155 52.5909C51.4735 52.3277 50.983 52.3917 50.72 52.7337C50.4568 53.0758 50.5208 53.5662 50.8628 53.8294C51.6014 54.3976 52.2121 55.1392 52.6293 55.9741C52.8225 56.3608 53.292 56.5164 53.6773 56.3239C54.0632 56.1311 54.2199 55.6619 54.0271 55.2758Z" fill="url(#paint3_linear_2_10113)"/>
<defs>
<linearGradient id="paint0_linear_2_10113" x1="40" y1="80" x2="40" y2="0" gradientUnits="userSpaceOnUse">
<stop stop-color="#ADDCFF"/>
<stop offset="0.5028" stop-color="#EAF6FF"/>
<stop offset="1" stop-color="#EAF6FF"/>
</linearGradient>
<linearGradient id="paint1_linear_2_10113" x1="48.5937" y1="52.5" x2="48.5937" y2="50.9375" gradientUnits="userSpaceOnUse">
<stop stop-color="#03BEFD"/>
<stop offset="1" stop-color="#5558FD"/>
</linearGradient>
<linearGradient id="paint2_linear_2_10113" x1="39.9999" y1="60" x2="39.9999" y2="20" gradientUnits="userSpaceOnUse">
<stop stop-color="#03BEFD"/>
<stop offset="1" stop-color="#5558FD"/>
</linearGradient>
<linearGradient id="paint3_linear_2_10113" x1="52.3337" y1="56.4064" x2="52.3337" y2="52.4288" gradientUnits="userSpaceOnUse">
<stop stop-color="#03BEFD"/>
<stop offset="1" stop-color="#5558FD"/>
</linearGradient>
</defs>
</svg>
