<svg width="31" height="30" viewBox="0 0 31 30" fill="none" xmlns="http://www.w3.org/2000/svg">
<path d="M0.382812 3.78378V26.2162C0.382812 28.3333 2.04948 30 4.1666 30H26.599C27.6351 30 28.6261 29.5045 29.2567 28.8739C29.9324 28.1982 30.3828 27.3423 30.3828 26.2162V3.78378C30.3828 1.66667 28.7161 0 26.599 0H4.1666C3.04047 0 2.18461 0.45045 1.50894 1.12613C0.878308 1.75676 0.382812 2.74775 0.382812 3.78378ZM4.43687 6.75676C4.43687 5.31532 5.60804 4.05405 7.04948 4.05405C8.53597 4.05405 9.75218 5.31532 9.75218 6.75676C9.75218 8.24324 8.53597 9.41441 7.04948 9.41441C5.60804 9.41441 4.43687 8.24324 4.43687 6.75676ZM11.6891 25.2703V11.5315C11.6891 11.2162 12.0044 10.9459 12.2297 10.9459H16.0585C16.599 10.9459 16.599 11.5766 16.599 11.982C17.6801 10.9009 19.0765 10.6306 20.5179 10.6306C24.0315 10.6306 26.2837 12.2973 26.2837 15.991V25.2703C26.2837 25.5856 26.0134 25.8559 25.7432 25.8559H21.7792C21.4639 25.8559 21.2387 25.5405 21.2387 25.2703V16.8919C21.2387 15.4955 20.8333 14.7297 19.2567 14.7297C17.2747 14.7297 16.7792 16.036 16.7792 17.7928V25.2703C16.7792 25.5856 16.4639 25.8559 16.1486 25.8559H12.2297C12.0044 25.8559 11.6891 25.5405 11.6891 25.2703ZM4.52696 25.2703V11.5315C4.52696 11.2162 4.84227 10.9459 5.0675 10.9459H8.98642C9.34678 10.9459 9.572 11.1712 9.572 11.5315V25.2703C9.572 25.5856 9.30173 25.8559 8.98642 25.8559H5.0675C4.79723 25.8559 4.52696 25.5405 4.52696 25.2703Z" fill="#CCCCCC"/>
</svg>
