<svg width="31" height="30" viewBox="0 0 31 30" fill="none" xmlns="http://www.w3.org/2000/svg">
<path d="M24.7583 0C26.3078 0 27.6327 0.55013 28.7329 1.65039C29.8332 2.75065 30.3833 4.07552 30.3833 5.625V24.375C30.3833 25.9245 29.8332 27.2493 28.7329 28.3496C27.6327 29.4499 26.3078 30 24.7583 30H21.0864V18.3789H24.9731L25.5591 13.8477H21.0864V10.957C21.0864 10.2279 21.2394 9.68099 21.5454 9.31641C21.8514 8.95182 22.4471 8.76953 23.3325 8.76953L25.7153 8.75V4.70703C24.895 4.58984 23.7362 4.53125 22.2388 4.53125C20.4679 4.53125 19.0519 5.05208 17.9907 6.09375C16.9295 7.13542 16.3989 8.60677 16.3989 10.5078V13.8477H12.4927V18.3789H16.3989V30H6.0083C4.45882 30 3.13395 29.4499 2.03369 28.3496C0.933431 27.2493 0.383301 25.9245 0.383301 24.375V5.625C0.383301 4.07552 0.933431 2.75065 2.03369 1.65039C3.13395 0.55013 4.45882 0 6.0083 0H24.7583Z" fill="#CCCCCC"/>
</svg>
