<svg width="31" height="30" viewBox="0 0 31 30" fill="none" xmlns="http://www.w3.org/2000/svg">
<path d="M26.6333 30H4.1333C3.09814 30 2.21436 29.6338 1.48193 28.9014C0.749512 28.1689 0.383301 27.2852 0.383301 26.25V3.75C0.383301 2.71484 0.749512 1.83105 1.48193 1.09863C2.21436 0.366211 3.09814 0 4.1333 0H26.6333C27.6685 0 28.5522 0.366211 29.2847 1.09863C30.0171 1.83105 30.3833 2.71484 30.3833 3.75V26.25C30.3833 27.2852 30.0171 28.1689 29.2847 28.9014C28.5522 29.6338 27.6685 30 26.6333 30ZM24.2017 7.5C24.0845 7.55859 23.9087 7.6709 23.6743 7.83691C23.4399 8.00293 23.2495 8.12988 23.103 8.21777C22.9565 8.30566 22.7759 8.39844 22.561 8.49609C22.3462 8.59375 22.1411 8.66211 21.9458 8.70117C21.2231 7.90039 20.3345 7.5 19.2798 7.5C16.9946 7.5 15.8521 8.45703 15.8521 10.3711V12.1289C12.7075 11.9531 10.2954 10.791 8.61572 8.64258C8.12744 9.15039 7.8833 9.70703 7.8833 10.3125C7.8833 11.6016 8.36182 12.5781 9.31885 13.2422C9.18213 13.2422 9.01123 13.252 8.80615 13.2715C8.60107 13.291 8.43506 13.291 8.30811 13.2715C8.18115 13.252 8.03955 13.2031 7.8833 13.125C7.8833 14.0234 8.12256 14.7705 8.60107 15.3662C9.07959 15.9619 9.73877 16.3477 10.5786 16.5234C10.3833 16.7578 10.1099 16.875 9.7583 16.875C9.4458 16.875 9.17236 16.7871 8.93799 16.6113C8.93799 17.373 9.3042 17.9639 10.0366 18.3838C10.769 18.8037 11.5942 19.0234 12.5122 19.043C12.1606 19.5703 11.6479 19.9658 10.9741 20.2295C10.3003 20.4932 9.58252 20.625 8.8208 20.625C8.54736 20.625 8.17139 20.5566 7.69287 20.4199C7.21436 20.2832 6.96533 20.2148 6.9458 20.2148C7.2583 20.8398 7.89795 21.377 8.86475 21.8262C9.83154 22.2754 11.0571 22.5 12.5415 22.5C13.8501 22.5 15.0708 22.2705 16.2036 21.8115C17.3364 21.3525 18.3032 20.7422 19.104 19.9805C19.9048 19.2188 20.5933 18.3496 21.1694 17.373C21.7456 16.3965 22.1753 15.3857 22.4585 14.3408C22.7417 13.2959 22.8833 12.2656 22.8833 11.25C22.8833 11.2109 23.0005 11.1279 23.2349 11.001C23.4692 10.874 23.7427 10.708 24.0552 10.5029C24.3677 10.2979 24.6021 10.0684 24.7583 9.81445C23.7036 9.81445 23.0005 9.83398 22.6489 9.87305C23.3325 9.46289 23.8501 8.67188 24.2017 7.5Z" fill="#CCCCCC"/>
</svg>
