<svg width="31" height="32" viewBox="0 0 31 32" fill="none" xmlns="http://www.w3.org/2000/svg">
<path d="M30.2951 9.84159C30.2783 8.5793 30.042 7.32955 29.5968 6.14826C29.2107 5.15185 28.621 4.24693 27.8654 3.49131C27.1098 2.7357 26.2048 2.14601 25.2084 1.75993C24.0423 1.32219 22.8104 1.0855 21.5651 1.05993C19.9618 0.988262 19.4534 0.968262 15.3834 0.968262C11.3134 0.968262 10.7918 0.968262 9.20008 1.05993C7.95535 1.08569 6.724 1.32238 5.55842 1.75993C4.56185 2.14574 3.65679 2.73534 2.90114 3.49098C2.14549 4.24663 1.5559 5.15169 1.17008 6.14826C0.73147 7.31348 0.49529 8.54511 0.471751 9.78993C0.400085 11.3949 0.378418 11.9033 0.378418 15.9733C0.378418 20.0433 0.378418 20.5633 0.471751 22.1566C0.496751 23.4033 0.731751 24.6333 1.17008 25.8016C1.55655 26.7979 2.14658 27.7026 2.90248 28.4579C3.65838 29.2132 4.56352 29.8026 5.56008 30.1883C6.72247 30.6436 7.95404 30.8972 9.20175 30.9383C10.8068 31.0099 11.3151 31.0316 15.3851 31.0316C19.4551 31.0316 19.9768 31.0316 21.5684 30.9383C22.8137 30.9137 24.0457 30.6776 25.2118 30.2399C26.2079 29.8534 27.1126 29.2636 27.8682 28.508C28.6237 27.7524 29.2136 26.8477 29.6001 25.8516C30.0384 24.6849 30.2734 23.4549 30.2984 22.2066C30.3701 20.6033 30.3918 20.0949 30.3918 16.0233C30.3884 11.9533 30.3884 11.4366 30.2951 9.84159ZM15.3734 23.6699C11.1168 23.6699 7.66842 20.2216 7.66842 15.9649C7.66842 11.7083 11.1168 8.25993 15.3734 8.25993C17.4169 8.25993 19.3767 9.0717 20.8217 10.5167C22.2666 11.9616 23.0784 13.9214 23.0784 15.9649C23.0784 18.0084 22.2666 19.9682 20.8217 21.4132C19.3767 22.8582 17.4169 23.6699 15.3734 23.6699ZM23.3851 9.77159C23.1491 9.77181 22.9153 9.72549 22.6973 9.63528C22.4792 9.54506 22.281 9.41273 22.1142 9.24585C21.9473 9.07897 21.8149 8.88082 21.7247 8.66274C21.6345 8.44466 21.5882 8.21093 21.5884 7.97493C21.5884 7.7391 21.6349 7.50557 21.7251 7.28769C21.8154 7.06981 21.9476 6.87184 22.1144 6.70508C22.2812 6.53832 22.4791 6.40604 22.697 6.31579C22.9149 6.22555 23.1484 6.17909 23.3843 6.17909C23.6201 6.17909 23.8536 6.22555 24.0715 6.31579C24.2894 6.40604 24.4873 6.53832 24.6541 6.70508C24.8209 6.87184 24.9531 7.06981 25.0434 7.28769C25.1336 7.50557 25.1801 7.7391 25.1801 7.97493C25.1801 8.96826 24.3768 9.77159 23.3851 9.77159Z" fill="#CCCCCC"/>
</svg>
