<svg width="24" height="24" viewBox="0 0 24 24" fill="none" xmlns="http://www.w3.org/2000/svg">
<path d="M16.0399 7.5C15.2487 3.825 13.5612 1.5 12.0004 1.5C10.4397 1.5 8.75219 3.825 7.96094 7.5H16.0399Z" fill="#014B83"/>
<path d="M7.5 12C7.49982 13.0033 7.56671 14.0056 7.70025 15H16.2998C16.4333 14.0056 16.5002 13.0033 16.5 12C16.5002 10.9967 16.4333 9.99442 16.2998 9H7.70025C7.56671 9.99442 7.49982 10.9967 7.5 12Z" fill="#014B83"/>
<path d="M7.96094 16.5C8.75219 20.175 10.4397 22.5 12.0004 22.5C13.5612 22.5 15.2487 20.175 16.0399 16.5H7.96094Z" fill="#014B83"/>
<path d="M17.5746 7.49977H22.2996C21.5897 5.8841 20.511 4.45728 19.15 3.33378C17.7891 2.21027 16.1838 1.42134 14.4629 1.03027C15.8856 2.28202 17.0016 4.59652 17.5746 7.49977Z" fill="#014B83"/>
<path d="M22.8402 9H17.8152C17.9389 9.99521 18.0008 10.9971 18.0005 12C18.0005 13.0029 17.9384 14.0048 17.8145 15H22.8395C23.3864 13.0374 23.3864 10.9626 22.8395 9H22.8402Z" fill="#014B83"/>
<path d="M14.4629 22.9695C16.1841 22.5786 17.7897 21.7898 19.1509 20.6663C20.5121 19.5428 21.591 18.1159 22.3011 16.5H17.5761C17.0016 19.4032 15.8856 21.7177 14.4629 22.9695Z" fill="#014B83"/>
<path d="M6.42422 16.5H1.69922C2.40931 18.1159 3.48825 19.5428 4.84947 20.6663C6.21069 21.7898 7.81629 22.5786 9.53747 22.9695C8.11322 21.7177 6.99722 19.4032 6.42422 16.5Z" fill="#014B83"/>
<path d="M9.53552 1.03027C7.81434 1.42113 6.20874 2.20996 4.84752 3.33348C3.4863 4.457 2.40736 5.88392 1.69727 7.49977H6.42227C6.99677 4.59652 8.11277 2.28202 9.53552 1.03027Z" fill="#014B83"/>
<path d="M5.99921 12C5.99912 10.9971 6.06124 9.99519 6.18521 9H1.16021C0.613262 10.9626 0.613262 13.0374 1.16021 15H6.18521C6.06124 14.0048 5.99912 13.0029 5.99921 12Z" fill="#014B83"/>
</svg>
