<svg width="80" height="80" viewBox="0 0 80 80" fill="none" xmlns="http://www.w3.org/2000/svg">
<path d="M40 80C62.0914 80 80 62.0914 80 40C80 17.9086 62.0914 0 40 0C17.9086 0 0 17.9086 0 40C0 62.0914 17.9086 80 40 80Z" fill="url(#paint0_linear_2_10101)"/>
<path d="M57.4607 46.7848L52.6774 42.6848C52.2245 42.2969 51.6466 42.0832 51.0507 42.0832H50.6537C51.3224 40.3619 51.667 38.5465 51.667 36.6665C51.667 28.3953 44.9382 21.6665 36.667 21.6665C28.3957 21.6665 21.667 28.3953 21.667 36.6665C21.667 43.7136 26.5328 49.7565 33.3337 51.2944V54.5832C33.3337 55.0432 33.707 55.4165 34.167 55.4165H36.347C36.7274 57.084 38.2195 58.3332 40.0003 58.3332C41.7812 58.3332 43.2732 57.084 43.6537 55.4165H48.0137C48.3941 57.084 49.8862 58.3332 51.667 58.3332C53.4478 58.3332 54.9399 57.084 55.3203 55.4165H55.8337C57.2124 55.4165 58.3337 54.2953 58.3337 52.9165V48.6832C58.3337 47.9519 58.0153 47.2603 57.4607 46.7848ZM47.8578 29.4315C49.0687 31.2978 49.8257 33.4836 49.9716 35.8332H44.1557C44.1095 34.059 43.9153 32.3761 43.5978 30.8307C45.047 30.4769 46.4687 30.0098 47.8578 29.4315ZM35.0003 38.7498C34.0812 38.7498 33.3337 39.4973 33.3337 40.4165V41.8644C32.6774 41.9407 32.0241 42.0315 31.377 42.1503C31.0791 40.6982 30.8953 39.1269 30.8482 37.4998H42.4799C42.4682 37.919 42.447 38.3357 42.4199 38.7498H35.0003ZM30.8457 35.8332C30.8912 34.144 31.0724 32.5823 31.3578 31.1769C33.0962 31.4961 34.8674 31.6665 36.667 31.6665C38.4666 31.6665 40.2378 31.4961 41.9762 31.1769C42.2616 32.5828 42.4432 34.1444 42.4882 35.8332H30.8457ZM46.8328 28.0528C45.647 28.5257 44.4357 28.9107 43.2037 29.2115C42.6007 27.0653 41.7416 25.2636 40.7024 23.959C43.1153 24.7273 45.2307 26.1653 46.8328 28.0528ZM36.667 23.3332C38.5274 23.3332 40.4741 25.6711 41.582 29.5548C39.9724 29.8448 38.3324 29.9998 36.667 29.9998C35.0012 29.9998 33.3616 29.8448 31.752 29.5548C32.8599 25.6711 34.8066 23.3332 36.667 23.3332ZM32.6312 23.959C31.5924 25.2632 30.7332 27.0653 30.1299 29.2115C28.8978 28.9107 27.687 28.5257 26.5012 28.0528C28.1032 26.1653 30.2187 24.7273 32.6312 23.959ZM25.4762 29.4315C26.8653 30.0098 28.287 30.4769 29.7366 30.8307C29.4187 32.3761 29.2249 34.059 29.1787 35.8332H23.3624C23.5082 33.4836 24.2653 31.2978 25.4762 29.4315ZM25.4607 43.904C24.2516 42.0298 23.5066 39.8386 23.3624 37.4998H29.182C29.2291 39.2515 29.4241 40.9365 29.7457 42.4982C28.2845 42.854 26.8537 43.3236 25.4607 43.904ZM26.4812 45.2823C27.6716 44.8073 28.892 44.4211 30.1345 44.1186C30.7299 46.2457 31.5787 48.0611 32.6199 49.3757C30.1803 48.6044 28.0707 47.1636 26.4812 45.2823ZM31.7716 43.7707C32.2891 43.6778 32.8103 43.604 33.3337 43.5394V47.4865C32.7103 46.4711 32.1799 45.2073 31.7716 43.7707ZM40.0003 56.6665C38.8516 56.6665 37.917 55.7319 37.917 54.5832C37.917 53.4344 38.8516 52.4998 40.0003 52.4998C41.1491 52.4998 42.0837 53.4344 42.0837 54.5832C42.0837 55.7319 41.1491 56.6665 40.0003 56.6665ZM45.0003 53.7498H43.6537C43.2732 52.0823 41.7812 50.8332 40.0003 50.8332C38.2195 50.8332 36.7274 52.0823 36.347 53.7498H35.0003V40.4165H45.0003V53.7498ZM45.0003 38.7498H44.0907C44.1162 38.3353 44.1353 37.9186 44.1466 37.4998H49.9732C49.8766 39.094 49.4991 40.6298 48.8512 42.0832H46.667V40.4165C46.667 39.4973 45.9195 38.7498 45.0003 38.7498ZM51.667 56.6665C50.5182 56.6665 49.5837 55.7319 49.5837 54.5832C49.5837 53.4344 50.5182 52.4998 51.667 52.4998C52.8157 52.4998 53.7503 53.4344 53.7503 54.5832C53.7503 55.7319 52.8157 56.6665 51.667 56.6665ZM56.667 52.9165C56.667 53.3761 56.2932 53.7498 55.8337 53.7498H55.3203C54.9399 52.0823 53.4478 50.8332 51.667 50.8332C49.8862 50.8332 48.3941 52.0823 48.0137 53.7498H46.667V43.7498H51.0507C51.2495 43.7498 51.4416 43.8211 51.5928 43.9503L56.3762 48.0503C56.5612 48.2086 56.667 48.4394 56.667 48.6832V52.9165ZM53.3337 48.7498C53.3337 49.2098 52.9603 49.5832 52.5003 49.5832H49.167C48.707 49.5832 48.3337 49.2098 48.3337 48.7498V46.2498C48.3337 45.7898 48.707 45.4165 49.167 45.4165C49.627 45.4165 50.0003 45.7898 50.0003 46.2498V47.9165H52.5003C52.9603 47.9165 53.3337 48.2898 53.3337 48.7498Z" fill="url(#paint1_linear_2_10101)"/>
<defs>
<linearGradient id="paint0_linear_2_10101" x1="40" y1="80" x2="40" y2="0" gradientUnits="userSpaceOnUse">
<stop stop-color="#ADDCFF"/>
<stop offset="0.5028" stop-color="#EAF6FF"/>
<stop offset="1" stop-color="#EAF6FF"/>
</linearGradient>
<linearGradient id="paint1_linear_2_10101" x1="40.0003" y1="58.3332" x2="40.0003" y2="21.6665" gradientUnits="userSpaceOnUse">
<stop stop-color="#03BEFD"/>
<stop offset="1" stop-color="#5558FD"/>
</linearGradient>
</defs>
</svg>
